<?xml version="1.0" encoding="UTF-8"?><svg id="Layer_2" xmlns="http://www.w3.org/2000/svg" viewBox="0 0 193.6 46.3"><defs><style>.cls-1{fill:#6b6b6b;}.cls-2{fill:#f18021;}</style></defs><g id="Layer_1-2"><g><g><path class="cls-2" d="M0,15H0C0,7.3,5.9,1,14.4,1c5.2,0,8.3,1.7,10.9,4.1l-3.9,4.3c-2.1-1.9-4.3-3-7-3-4.6,0-8,3.8-8,8.4v.1c0,4.6,3.3,8.4,8,8.4,3.1,0,5.1-1.2,7.2-3.1l3.9,3.8c-2.8,3-6,4.8-11.3,4.8-8.2,0-14.2-6.1-14.2-13.8"/><path class="cls-2" d="M28.2,18.1h0c0-6,4.9-10.8,11.5-10.8s11.4,4.7,11.4,10.6v.2c0,5.9-4.9,10.7-11.5,10.7s-11.4-4.7-11.4-10.7m16.9,0h0c0-3.1-2.2-5.8-5.5-5.8s-5.5,2.6-5.5,5.6v.2c0,3,2.2,5.7,5.5,5.7,3.5-.1,5.5-2.6,5.5-5.7"/><polygon class="cls-2" points="52.3 7.7 58.6 7.7 63.3 21.5 68.1 7.7 74.3 7.7 66 28.5 60.6 28.5 52.3 7.7"/><path class="cls-2" d="M77.9,.3h6.3V5.5h-6.3V.3Zm.1,7.4h6V28.3h-6V7.7Z"/><path class="cls-2" d="M88.4,24.4l3.6-4.2c2.5,2,5.1,3.3,8.2,3.3,2.5,0,4-1,4-2.5v-.1c0-1.5-.9-2.3-5.5-3.4-5.5-1.4-9.1-2.9-9.1-8.2v-.1c0-4.9,4-8.1,9.6-8.1,4,0,7.4,1.2,10.2,3.4l-3.1,4.5c-2.4-1.7-4.8-2.6-7.2-2.6s-3.5,1-3.5,2.3v.1c0,1.8,1.2,2.3,5.9,3.5,5.6,1.4,8.7,3.4,8.7,8.1v.1c0,5.3-4.2,8.3-10.1,8.3-4.2-.1-8.4-1.5-11.7-4.4"/><polygon class="cls-2" points="112.7 7.7 118.8 7.7 122.2 20.2 126.1 7.7 131.3 7.7 135.3 20.3 138.8 7.7 144.7 7.7 138.1 28.5 132.8 28.5 128.7 15.8 124.6 28.5 119.2 28.5 112.7 7.7"/><path class="cls-2" d="M148.5,.3h6.3V5.5h-6.3V.3Zm.1,7.4h6V28.3h-6V7.7Z"/><path class="cls-2" d="M161.2,12.7h-2.4V7.9h2.5v-1.3c0-2.3,.6-3.9,1.7-5,1.1-1.1,2.7-1.6,4.8-1.6,1.9,0,3.1,.2,4.2,.6V5.4c-.9-.3-1.7-.5-2.7-.5-1.4,0-2.2,.7-2.2,2.2v.8h4.8v4.8h-4.8v15.6h-6V12.7h.1Z"/><path class="cls-2" d="M176.2,22.5V12.8h-2.5V7.8h2.5V2.5h6V7.8h5v5h-5v8.8c0,1.3,.6,2,1.9,2,1.1,0,2.1-.3,3-.7v4.7c-1.3,.7-2.7,1.2-4.7,1.2-3.7-.1-6.2-1.6-6.2-6.3"/><path class="cls-2" d="M189.6,8.2h-.7v-.5h1.9v.5h-.7v1.8h-.5v-1.8Zm1.7-.5h.6l.6,1,.6-1h.5v2.3h-.5v-1.5l-.6,1h0l-.6-1v1.5h-.5v-2.3h-.1Z"/></g><g><path class="cls-1" d="M0,42.1H0c0-2.3,1.7-4.2,4.1-4.2,1.5,0,2.4,.5,3.1,1.2l-.9,1c-.6-.6-1.3-1-2.2-1-1.5,0-2.6,1.3-2.6,2.8h0c0,1.6,1.1,2.8,2.6,2.8,1,0,1.6-.4,2.3-1l.9,.9c-.8,.9-1.8,1.4-3.3,1.4-2.2,.2-4-1.6-4-3.9Z"/><path class="cls-1" d="M8.3,42.1h0c0-2.3,1.7-4.2,4.2-4.2s4.2,1.9,4.2,4.1h0c0,2.3-1.7,4.1-4.2,4.1s-4.2-1.8-4.2-4Zm6.9,0h0c0-1.6-1.1-2.9-2.7-2.9s-2.7,1.3-2.7,2.8h0c0,1.6,1.1,2.8,2.7,2.8,1.6,.1,2.7-1.2,2.7-2.7Z"/><path class="cls-1" d="M17.2,38h1.6l2.4,6.2,2.4-6.2h1.5l-3.3,8.1h-1.2l-3.4-8.1Z"/><path class="cls-1" d="M26.6,38h1.4v8h-1.4v-8Z"/><path class="cls-1" d="M30.1,38h3c2.5,0,4.3,1.7,4.3,4h0c0,2.3-1.7,4-4.3,4h-3v-8Zm1.4,1.3v5.4h1.6c1.7,0,2.8-1.1,2.8-2.7h0c0-1.6-1.1-2.7-2.8-2.7h-1.6Z"/><path class="cls-1" d="M38.7,41.8h3.4v1.4h-3.4v-1.4Z"/><path class="cls-1" d="M44.4,39.4l-1.4,.4-.3-1.1,2.2-.7h1v8.1h-1.4v-6.7h-.1Z"/><path class="cls-1" d="M52.3,42.4c-.4,.5-1.1,.9-1.9,.9-1.7,0-2.8-1-2.8-2.5h0c0-1.6,1.2-2.8,3-2.8,1,0,1.7,.3,2.2,.8,.6,.6,1,1.5,1,3.1h0c0,2.6-1.3,4.4-3.4,4.4-1.1,0-1.9-.4-2.6-1l.8-1.1c.6,.5,1.1,.8,1.8,.8,1.4-.1,1.9-1.6,1.9-2.6Zm0-1.8h0c0-.9-.7-1.5-1.7-1.5s-1.6,.7-1.6,1.5h0c0,.8,.6,1.4,1.6,1.4,1.1,0,1.7-.6,1.7-1.4Z"/><path class="cls-1" d="M58.4,44.9l.8-1c.8,.7,1.5,1,2.5,1,.9,0,1.4-.4,1.4-1h0c0-.6-.3-.9-1.8-1.2-1.7-.4-2.7-.9-2.7-2.4h0c0-1.4,1.1-2.3,2.7-2.3,1.2,0,2.1,.4,2.9,1l-.8,1.1c-.7-.5-1.4-.8-2.2-.8s-1.3,.4-1.3,1h0c0,.6,.4,.9,1.9,1.3,1.7,.4,2.6,1,2.6,2.3h0c0,1.5-1.2,2.4-2.9,2.4-1-.1-2.2-.6-3.1-1.4Z"/><path class="cls-1" d="M69.7,38h3.1c1.9,0,3,1.1,3,2.7h0c0,1.8-1.4,2.7-3.2,2.7h-1.6v2.6h-1.4v-8h.1Zm3,4.2c1.1,0,1.7-.6,1.7-1.4h0c0-.9-.7-1.4-1.7-1.4h-1.6v2.9h1.6v-.1Z"/><path class="cls-1" d="M77.3,38h1.4v6.7h4.2v1.3h-5.6v-8Z"/><path class="cls-1" d="M84.1,42.6v-4.6h1.4v4.6c0,1.5,.8,2.3,2,2.3s2-.7,2-2.2v-4.6h1.4v4.5c0,2.4-1.4,3.6-3.4,3.6-2.1,0-3.4-1.2-3.4-3.6Z"/><path class="cls-1" d="M92.3,44.9l.8-1c.8,.7,1.5,1,2.5,1,.9,0,1.4-.4,1.4-1h0c0-.6-.3-.9-1.8-1.2-1.7-.4-2.7-.9-2.7-2.4h0c0-1.4,1.1-2.3,2.7-2.3,1.2,0,2.1,.4,2.9,1l-.8,1.1c-.7-.5-1.4-.8-2.2-.8s-1.3,.4-1.3,1h0c0,.6,.4,.9,1.9,1.3,1.7,.4,2.6,1,2.6,2.3h0c0,1.5-1.2,2.4-2.9,2.4-.9-.1-2.1-.6-3.1-1.4Z"/><path class="cls-1" d="M103.6,38h3.6c1,0,1.8,.3,2.3,.8,.4,.4,.7,1,.7,1.7h0c0,1.3-.8,2.1-1.9,2.4l2.2,3h-1.7l-2-2.8h-1.8v2.8h-1.4v-7.9Zm3.5,4c1,0,1.6-.5,1.6-1.3h0c0-.9-.6-1.3-1.7-1.3h-2v2.7h2.1v-.1Z"/><path class="cls-1" d="M114.8,38h1.3l3.5,8.1h-1.5l-.8-1.9h-3.8l-.8,1.9h-1.4l3.5-8.1Zm2,4.9l-1.4-3.2-1.4,3.2h2.8Z"/><path class="cls-1" d="M121,38h3.2c1.9,0,3,1.1,3,2.7h0c0,1.8-1.4,2.7-3.2,2.7h-1.6v2.6h-1.4v-8Zm3,4.2c1.1,0,1.7-.6,1.7-1.4h0c0-.9-.7-1.4-1.7-1.4h-1.6v2.9h1.6v-.1Z"/><path class="cls-1" d="M128.7,38h1.4v8h-1.4v-8Z"/><path class="cls-1" d="M132.2,38h3c2.5,0,4.3,1.7,4.3,4h0c0,2.3-1.7,4-4.3,4h-3v-8Zm1.5,1.3v5.4h1.6c1.7,0,2.8-1.1,2.8-2.7h0c0-1.6-1.1-2.7-2.8-2.7h-1.6Z"/><path class="cls-1" d="M144.6,38h3.2c1.9,0,3,1.1,3,2.7h0c0,1.8-1.4,2.7-3.2,2.7h-1.6v2.6h-1.4v-8Zm3.1,4.2c1.1,0,1.7-.6,1.7-1.4h0c0-.9-.7-1.4-1.7-1.4h-1.6v2.9h1.6v-.1Z"/><path class="cls-1" d="M151.9,42.1h0c0-2.3,1.7-4.2,4.1-4.2,1.5,0,2.4,.5,3.1,1.2l-.9,1c-.6-.6-1.3-1-2.2-1-1.5,0-2.6,1.3-2.6,2.8h0c0,1.6,1.1,2.8,2.6,2.8,1,0,1.6-.4,2.3-1l.9,.9c-.8,.9-1.8,1.4-3.3,1.4-2.2,.2-4-1.6-4-3.9Z"/><path class="cls-1" d="M160.7,38h3.6c1,0,1.8,.3,2.3,.8,.4,.4,.7,1,.7,1.7h0c0,1.3-.8,2.1-1.9,2.4l2.2,3h-1.7l-2-2.8h-1.8v2.8h-1.4v-7.9h0Zm3.5,4c1,0,1.6-.5,1.6-1.3h0c0-.9-.6-1.3-1.7-1.3h-2v2.7h2.1v-.1Z"/><path class="cls-1" d="M172.5,38h1.4v4l3.8-4h1.7l-3.3,3.4,3.5,4.6h-1.8l-2.7-3.6-1.2,1.3v2.3h-1.4v-8h0Z"/><path class="cls-1" d="M180.8,38h1.4v8h-1.4v-8Z"/><path class="cls-1" d="M186.4,39.3h-2.6v-1.3h6.5v1.3h-2.5v6.7h-1.4v-6.7Z"/></g></g></g></svg>