<svg xmlns="http://www.w3.org/2000/svg" xmlns:xlink="http://www.w3.org/1999/xlink" id="Layer_1" x="0px" y="0px" viewBox="0 0 216 144" style="enable-background:new 0 0 216 144;" xml:space="preserve"><style type="text/css">	.st0{fill:#F18021;}	.st1{fill:#6B6B6B;}</style><g>	<g>		<path class="st0" d="M11.2,63.9L11.2,63.9c0-7.7,5.9-14,14.4-14c5.2,0,8.3,1.7,10.9,4.1l-3.9,4.3c-2.1-1.9-4.3-3-7-3   c-4.6,0-8,3.8-8,8.4v0.1c0,4.6,3.3,8.4,8,8.4c3.1,0,5.1-1.2,7.2-3.1l3.9,3.8c-2.8,3-6,4.8-11.3,4.8C17.2,77.7,11.2,71.6,11.2,63.9   "></path>		<path class="st0" d="M39.4,67L39.4,67c0-6,4.9-10.8,11.5-10.8c6.5,0,11.4,4.7,11.4,10.6V67c0,5.9-4.9,10.7-11.5,10.7   C44.2,77.7,39.4,73,39.4,67 M56.3,67L56.3,67c0-3.1-2.2-5.8-5.5-5.8c-3.4,0-5.5,2.6-5.5,5.6V67c0,3,2.2,5.7,5.5,5.7   C54.3,72.6,56.3,70.1,56.3,67"></path>		<polygon class="st0" points="63.5,56.6 69.8,56.6 74.5,70.4 79.3,56.6 85.5,56.6 77.2,77.4 71.8,77.4   "></polygon>		<path class="st0" d="M89.1,49.2h6.3v5.2h-6.3V49.2z M89.2,56.6h6v20.6h-6V56.6z"></path>		<path class="st0" d="M99.6,73.3l3.6-4.2c2.5,2,5.1,3.3,8.2,3.3c2.5,0,4-1,4-2.5v-0.1c0-1.5-0.9-2.3-5.5-3.4   c-5.5-1.4-9.1-2.9-9.1-8.2v-0.1c0-4.9,4-8.1,9.6-8.1c4,0,7.4,1.2,10.2,3.4l-3.1,4.5c-2.4-1.7-4.8-2.6-7.2-2.6   c-2.3,0-3.5,1-3.5,2.3v0.1c0,1.8,1.2,2.3,5.9,3.5c5.6,1.4,8.7,3.4,8.7,8.1v0.1c0,5.3-4.2,8.3-10.1,8.3   C107.1,77.6,102.9,76.2,99.6,73.3"></path>		<polygon class="st0" points="123.9,56.6 130,56.6 133.4,69.1 137.3,56.6 142.5,56.6 146.5,69.2 150,56.6 155.9,56.6 149.3,77.4    144,77.4 139.9,64.7 135.8,77.4 130.4,77.4   "></polygon>		<path class="st0" d="M159.7,49.2h6.3v5.2h-6.3V49.2z M159.8,56.6h6v20.6h-6V56.6z"></path>		<path class="st0" d="M172.4,61.6H170v-4.8h2.5v-1.3c0-2.3,0.6-3.9,1.7-5c1.1-1.1,2.7-1.6,4.8-1.6c1.9,0,3.1,0.2,4.2,0.6v4.8   c-0.9-0.3-1.7-0.5-2.7-0.5c-1.4,0-2.2,0.7-2.2,2.2v0.8h4.8v4.8h-4.8v15.6h-6V61.6z"></path>		<path class="st0" d="M187.4,71.4v-9.7h-2.5v-5h2.5v-5.3h6v5.3h5v5h-5v8.8c0,1.3,0.6,2,1.9,2c1.1,0,2.1-0.3,3-0.7v4.7   c-1.3,0.7-2.7,1.2-4.7,1.2C189.9,77.6,187.4,76.1,187.4,71.4"></path>		<path class="st0" d="M200.8,57.1h-0.7v-0.5h1.9v0.5h-0.7v1.8h-0.5V57.1z M202.5,56.6h0.6l0.6,1l0.6-1h0.5v2.3h-0.5v-1.5l-0.6,1h0   l-0.6-1v1.5h-0.5V56.6z"></path>	</g>	<g>		<path class="st1" d="M11.2,91L11.2,91c0-2.3,1.7-4.2,4.1-4.2c1.5,0,2.4,0.5,3.1,1.2l-0.9,1c-0.6-0.6-1.3-1-2.2-1   c-1.5,0-2.6,1.3-2.6,2.8v0c0,1.6,1.1,2.8,2.6,2.8c1,0,1.6-0.4,2.3-1l0.9,0.9c-0.8,0.9-1.8,1.4-3.3,1.4C13,95.1,11.2,93.3,11.2,91z   "></path>		<path class="st1" d="M19.5,91L19.5,91c0-2.3,1.7-4.2,4.2-4.2s4.2,1.9,4.2,4.1v0c0,2.3-1.7,4.1-4.2,4.1S19.5,93.2,19.5,91z    M26.4,91L26.4,91c0-1.6-1.1-2.9-2.7-2.9c-1.6,0-2.7,1.3-2.7,2.8v0c0,1.6,1.1,2.8,2.7,2.8C25.3,93.8,26.4,92.5,26.4,91z"></path>		<path class="st1" d="M28.4,86.9H30l2.4,6.2l2.4-6.2h1.5L33,95h-1.2L28.4,86.9z"></path>		<path class="st1" d="M37.8,86.9h1.4v8h-1.4V86.9z"></path>		<path class="st1" d="M41.3,86.9h3c2.5,0,4.3,1.7,4.3,4v0c0,2.3-1.7,4-4.3,4h-3V86.9z M42.7,88.2v5.4h1.6c1.7,0,2.8-1.1,2.8-2.7v0   c0-1.6-1.1-2.7-2.8-2.7H42.7z"></path>		<path class="st1" d="M49.9,90.7h3.4v1.4h-3.4V90.7z"></path>		<path class="st1" d="M55.6,88.3l-1.4,0.4l-0.3-1.1l2.2-0.7h1v8.1h-1.4V88.3z"></path>		<path class="st1" d="M63.5,91.3c-0.4,0.5-1.1,0.9-1.9,0.9c-1.7,0-2.8-1-2.8-2.5v0c0-1.6,1.2-2.8,3-2.8c1,0,1.7,0.3,2.2,0.8   c0.6,0.6,1,1.5,1,3.1v0c0,2.6-1.3,4.4-3.4,4.4c-1.1,0-1.9-0.4-2.6-1l0.8-1.1c0.6,0.5,1.1,0.8,1.8,0.8C63,93.8,63.5,92.3,63.5,91.3   z M63.5,89.5L63.5,89.5c0-0.9-0.7-1.5-1.7-1.5c-1,0-1.6,0.7-1.6,1.5v0c0,0.8,0.6,1.4,1.6,1.4C62.9,90.9,63.5,90.3,63.5,89.5z"></path>		<path class="st1" d="M69.6,93.8l0.8-1c0.8,0.7,1.5,1,2.5,1c0.9,0,1.4-0.4,1.4-1v0c0-0.6-0.3-0.9-1.8-1.2c-1.7-0.4-2.7-0.9-2.7-2.4   v0c0-1.4,1.1-2.3,2.7-2.3c1.2,0,2.1,0.4,2.9,1l-0.8,1.1c-0.7-0.5-1.4-0.8-2.2-0.8c-0.8,0-1.3,0.4-1.3,1v0c0,0.6,0.4,0.9,1.9,1.3   c1.7,0.4,2.6,1,2.6,2.3v0c0,1.5-1.2,2.4-2.9,2.4C71.7,95.1,70.5,94.6,69.6,93.8z"></path>		<path class="st1" d="M80.9,86.9H84c1.9,0,3,1.1,3,2.7v0c0,1.8-1.4,2.7-3.2,2.7h-1.6v2.6h-1.4V86.9z M83.9,91.1   c1.1,0,1.7-0.6,1.7-1.4v0c0-0.9-0.7-1.4-1.7-1.4h-1.6v2.9H83.9z"></path>		<path class="st1" d="M88.5,86.9h1.4v6.7h4.2v1.3h-5.6V86.9z"></path>		<path class="st1" d="M95.3,91.5v-4.6h1.4v4.6c0,1.5,0.8,2.3,2,2.3c1.2,0,2-0.7,2-2.2v-4.6h1.4v4.5c0,2.4-1.4,3.6-3.4,3.6   C96.6,95.1,95.3,93.9,95.3,91.5z"></path>		<path class="st1" d="M103.5,93.8l0.8-1c0.8,0.7,1.5,1,2.5,1c0.9,0,1.4-0.4,1.4-1v0c0-0.6-0.3-0.9-1.8-1.2   c-1.7-0.4-2.7-0.9-2.7-2.4v0c0-1.4,1.1-2.3,2.7-2.3c1.2,0,2.1,0.4,2.9,1l-0.8,1.1c-0.7-0.5-1.4-0.8-2.2-0.8c-0.8,0-1.3,0.4-1.3,1   v0c0,0.6,0.4,0.9,1.9,1.3c1.7,0.4,2.6,1,2.6,2.3v0c0,1.5-1.2,2.4-2.9,2.4C105.7,95.1,104.5,94.6,103.5,93.8z"></path>		<path class="st1" d="M114.8,86.9h3.6c1,0,1.8,0.3,2.3,0.8c0.4,0.4,0.7,1,0.7,1.7v0c0,1.3-0.8,2.1-1.9,2.4l2.2,3H120l-2-2.8h-1.8   v2.8h-1.4V86.9z M118.3,90.9c1,0,1.6-0.5,1.6-1.3v0c0-0.9-0.6-1.3-1.7-1.3h-2v2.7H118.3z"></path>		<path class="st1" d="M126,86.9h1.3l3.5,8.1h-1.5l-0.8-1.9h-3.8l-0.8,1.9h-1.4L126,86.9z M128,91.8l-1.4-3.2l-1.4,3.2H128z"></path>		<path class="st1" d="M132.2,86.9h3.2c1.9,0,3,1.1,3,2.7v0c0,1.8-1.4,2.7-3.2,2.7h-1.6v2.6h-1.4V86.9z M135.2,91.1   c1.1,0,1.7-0.6,1.7-1.4v0c0-0.9-0.7-1.4-1.7-1.4h-1.6v2.9H135.2z"></path>		<path class="st1" d="M139.9,86.9h1.4v8h-1.4V86.9z"></path>		<path class="st1" d="M143.4,86.9h3c2.5,0,4.3,1.7,4.3,4v0c0,2.3-1.7,4-4.3,4h-3V86.9z M144.9,88.2v5.4h1.6c1.7,0,2.8-1.1,2.8-2.7   v0c0-1.6-1.1-2.7-2.8-2.7H144.9z"></path>		<path class="st1" d="M155.8,86.9h3.2c1.9,0,3,1.1,3,2.7v0c0,1.8-1.4,2.7-3.2,2.7h-1.6v2.6h-1.4V86.9z M158.9,91.1   c1.1,0,1.7-0.6,1.7-1.4v0c0-0.9-0.7-1.4-1.7-1.4h-1.6v2.9H158.9z"></path>		<path class="st1" d="M163.1,91L163.1,91c0-2.3,1.7-4.2,4.1-4.2c1.5,0,2.4,0.5,3.1,1.2l-0.9,1c-0.6-0.6-1.3-1-2.2-1   c-1.5,0-2.6,1.3-2.6,2.8v0c0,1.6,1.1,2.8,2.6,2.8c1,0,1.6-0.4,2.3-1l0.9,0.9c-0.8,0.9-1.8,1.4-3.3,1.4   C164.9,95.1,163.1,93.3,163.1,91z"></path>		<path class="st1" d="M171.9,86.9h3.6c1,0,1.8,0.3,2.3,0.8c0.4,0.4,0.7,1,0.7,1.7v0c0,1.3-0.8,2.1-1.9,2.4l2.2,3h-1.7l-2-2.8h-1.8   v2.8h-1.4V86.9z M175.4,90.9c1,0,1.6-0.5,1.6-1.3v0c0-0.9-0.6-1.3-1.7-1.3h-2v2.7H175.4z"></path>		<path class="st1" d="M183.7,86.9h1.4v4l3.8-4h1.7l-3.3,3.4l3.5,4.6H189l-2.7-3.6l-1.2,1.3v2.3h-1.4V86.9z"></path>		<path class="st1" d="M192,86.9h1.4v8H192V86.9z"></path>		<path class="st1" d="M197.6,88.2H195v-1.3h6.5v1.3H199v6.7h-1.4V88.2z"></path>	</g></g></svg>